<svg id="Places_images_here" data-name="Places images here" xmlns="http://www.w3.org/2000/svg" viewBox="0 0 66 53"><defs><style>.cls-1{fill:#2baccc;}.cls-2{fill:#00259b;}</style></defs><path class="cls-1" d="M35.28,25.89a.4.4,0,0,0-.43.17,1.5,1.5,0,0,1-1.66.77c-.33-.14-.31-.51-.24-.79l1.83-7.15H30.26a.42.42,0,0,0-.36.41.4.4,0,0,0,.39.38h0l.71-.08a.46.46,0,0,1,.51.4.32.32,0,0,1,0,.17l-1.55,6a2.87,2.87,0,0,0,0,1.83A1.88,1.88,0,0,0,31,29a2.33,2.33,0,0,0,.79.12,3.37,3.37,0,0,0,1.59-.42,5.07,5.07,0,0,0,2.09-2.3.38.38,0,0,0-.18-.51Z"/><path class="cls-1" d="M33.91,16.79A1.89,1.89,0,1,0,32,14.89h0A1.89,1.89,0,0,0,33.91,16.79Z"/><path class="cls-2" d="M33,4.94A16.37,16.37,0,0,0,16.63,21.31c0,12.18,15.76,26.56,15.76,26.56a.67.67,0,0,0,.91.31.64.64,0,0,0,.32-.31S49.37,33.49,49.37,21.31A16.37,16.37,0,0,0,33,4.94Zm0,27A10.86,10.86,0,1,1,43.86,21.09v0A10.86,10.86,0,0,1,33,31.94Z"/></svg>