<svg id="Layer_1" data-name="Layer 1" xmlns="http://www.w3.org/2000/svg" viewBox="0 0 24 24"><defs><style>.cls-1{fill:none;}.cls-2{fill:#0026a1;}</style></defs><path class="cls-1" d="M0,0H24V24H0Z"/><path id="Icon_material-call" data-name="Icon material-call" class="cls-2" d="M6.46,10.85a15.59,15.59,0,0,0,6.77,6.77l2.26-2.26a1,1,0,0,1,1-.25,12,12,0,0,0,3.67.58,1,1,0,0,1,1,1v3.59a1,1,0,0,1-1,1A17.46,17.46,0,0,1,2.74,3.87a1,1,0,0,1,1-1H7.36a1,1,0,0,1,1,1A11.7,11.7,0,0,0,9,7.54a1,1,0,0,1-.26,1Z"/></svg>