<svg id="Instagram" xmlns="http://www.w3.org/2000/svg" width="35" height="35" viewBox="0 0 35 35">
  <circle id="Ellipse_5" data-name="Ellipse 5" cx="17.5" cy="17.5" r="17.5" fill="#00259b"/>
  <path id="Icon_zocial-instagram" data-name="Icon zocial-instagram" d="M1.557,16.486A2.12,2.12,0,0,1,.6,15.972a1.8,1.8,0,0,1-.531-.863C0,14.88,0,14.663,0,8.282,0,1.113-.012,1.507.186,1.1a1.992,1.992,0,0,1,1-.934c.442-.184.01-.174,7.672-.165l7.058.006.219.071a2.023,2.023,0,0,1,1.316,1.241l.075.207.007,6.656c.01,7.392.027,6.84-.223,7.318a1.981,1.981,0,0,1-.867.817c-.5.233.069.216-7.689.213C2.821,16.531,1.732,16.524,1.557,16.486Zm13.657-1.968c.281-.187.288-.207.3-1.438.01-1.2,0-1.26-.206-1.451-.188-.174-.278-.184-1.518-.181l-1.131,0-.154.078a.824.824,0,0,0-.254.226l-.1.142,0,1.069c0,.585.01,1.118.027,1.179a.612.612,0,0,0,.349.407l.171.081,1.189-.01,1.186-.01ZM9.451,11.381a3.308,3.308,0,0,0,2.625-2.488,3.725,3.725,0,0,0,.038-1.05,3.264,3.264,0,0,0-1.758-2.378,3.821,3.821,0,0,0-.9-.317c-.065-.006-.2-.026-.3-.042a3.46,3.46,0,0,0-1.419.139A3.3,3.3,0,0,0,6.09,6.34a3.021,3.021,0,0,0,.065,3.926,3.478,3.478,0,0,0,2.261,1.16A3.789,3.789,0,0,0,9.451,11.381Zm-5.965-2.1A4.865,4.865,0,0,1,3.938,6,4.775,4.775,0,0,1,4.963,4.676,5.548,5.548,0,0,1,9.626,3.242,5.321,5.321,0,0,1,13.991,6.99a4.741,4.741,0,0,1,.14,1.809,3.379,3.379,0,0,1-.14.7c-.01.016-.007.029.01.032.13.013,1.463.01,1.487-.006s.027-1.444.024-3.606l-.01-3.59-.1-.139a.843.843,0,0,0-.257-.213L14.988,1.9l-6.257.01-6.253.006L2.338,2a.876.876,0,0,0-.219.21l-.082.123-.01,3.57c0,1.964,0,3.583.007,3.6a3.906,3.906,0,0,0,.764.032h.75Z" transform="translate(26.187 25.802) rotate(180)" fill="#fff"/>
</svg>
