<svg id="LinkedIn" xmlns="http://www.w3.org/2000/svg" width="35" height="35" viewBox="0 0 35 35">
  <circle id="Ellipse_34" data-name="Ellipse 34" cx="17.5" cy="17.5" r="17.5" fill="#00259b"/>
  <path id="Icon_awesome-linkedin-in" data-name="Icon awesome-linkedin-in" d="M4.166,18.61H.307V6.185H4.166ZM2.234,4.491A2.245,2.245,0,1,1,4.469,2.235,2.253,2.253,0,0,1,2.234,4.491ZM18.605,18.61h-3.85V12.562c0-1.441-.029-3.29-2.006-3.29-2.006,0-2.313,1.566-2.313,3.186V18.61H6.582V6.185h3.7V7.88h.054a4.054,4.054,0,0,1,3.65-2.006c3.9,0,4.622,2.571,4.622,5.911V18.61Z" transform="translate(9 7.999)" fill="#fff"/>
</svg>
