<svg id="Places_images_here" data-name="Places images here" xmlns="http://www.w3.org/2000/svg" viewBox="0 0 66 53"><defs><style>.cls-1{fill:#2baccc;}.cls-2{fill:#00259b;}.cls-3{fill:#fff;}</style></defs><path class="cls-1" d="M48.17,8a6.55,6.55,0,0,0-2.79.64V20.26A6.45,6.45,0,1,0,48.17,8Z"/><rect class="cls-1" x="48.5" y="27.71" width="5.42" height="12.93"/><rect class="cls-1" x="48.5" y="41.66" width="5.42" height="1.22"/><path class="cls-1" d="M48.5,43.92h5.42v2.45A1.57,1.57,0,0,1,52.36,48H50.09a1.59,1.59,0,0,1-1.59-1.59h0Z"/><path class="cls-1" d="M50.75,23.06,48.5,26.69h5.42l-2.24-3.63a.54.54,0,0,0-.73-.19A.61.61,0,0,0,50.75,23.06Z"/><path class="cls-2" d="M43,5.29H12.66A1.36,1.36,0,0,0,11.3,6.65v40A1.36,1.36,0,0,0,12.66,48H43a1.36,1.36,0,0,0,1.37-1.36V6.65A1.36,1.36,0,0,0,43,5.29ZM20.88,43.55H15.74V38.37h5.14v5.18Zm0-9.56H15.74V28.83h5.14Zm0-9.56H15.74V19.27h5.14Zm9.54,19.12H25.28V38.37h5.14Zm0-9.56H25.28V28.83h5.14Zm0-9.56H25.28V19.27h5.14ZM40,43.55H34.82V38.37H40ZM40,34H34.82V28.83H40Zm0-9.56H34.82V19.27H40Zm0-9.58H15.74V9.71H40Z"/><path class="cls-3" d="M48.85,16.84v.49H48v-.49a1.52,1.52,0,0,1-1.42-1.55h1c0,.43.37.64.79.64s.75-.19.75-.53-.42-.45-.92-.57c-.72-.17-1.58-.38-1.58-1.39a1.34,1.34,0,0,1,1.31-1.36v-.45h.8v.45A1.39,1.39,0,0,1,50,13.55h-1c0-.4-.33-.58-.71-.58s-.67.13-.67.42.41.43.9.54c.73.19,1.63.41,1.63,1.46A1.45,1.45,0,0,1,48.85,16.84Z"/></svg>