<svg id="Places_images_here" data-name="Places images here" xmlns="http://www.w3.org/2000/svg" viewBox="0 0 66 53"><defs><style>.cls-1{fill:#00259b;}.cls-2{fill:#2baccc;}</style></defs><path class="cls-1" d="M36.33,5.35H9.1A1.49,1.49,0,0,0,7.63,6.79V28.63A1.47,1.47,0,0,0,9.1,30.11h6.09v5.62a1.47,1.47,0,0,0,.91,1.37,1.56,1.56,0,0,0,.57.11,1.46,1.46,0,0,0,1-.43l6.67-6.67h12a1.49,1.49,0,0,0,1.48-1.48V6.79A1.5,1.5,0,0,0,36.33,5.35ZM22.71,26a1.69,1.69,0,0,1,0-3.37A1.69,1.69,0,0,1,24.4,24.3h0A1.69,1.69,0,0,1,22.71,26Zm2-15.18L23.94,20a1.23,1.23,0,0,1-2.46,0l-.74-9.16a1.5,1.5,0,0,1,0-.3,2,2,0,1,1,4-.29,1.41,1.41,0,0,1,0,.29C24.73,10.6,24.72,10.7,24.7,10.8Z"/><path class="cls-2" d="M56.5,15.86H40.09V28.63a3.8,3.8,0,0,1-3.8,3.8H27.76v6.7a1.48,1.48,0,0,0,1.48,1.48h12l6.67,6.75a1.45,1.45,0,0,0,1,.44,1.39,1.39,0,0,0,.57-.12,1.47,1.47,0,0,0,.91-1.36V40.65H56.5A1.48,1.48,0,0,0,58,39.17V17.33A1.47,1.47,0,0,0,56.5,15.86ZM44,21.76h8.15a1.23,1.23,0,1,1,.23,2.44.89.89,0,0,1-.23,0H44a1.23,1.23,0,1,1-.23-2.44A.89.89,0,0,1,44,21.76Zm5.69,13H44a1.23,1.23,0,1,1-.23-2.44.89.89,0,0,1,.23,0h5.69a1.22,1.22,0,1,1,.22,2.44Zm4.46-5.27H44A1.23,1.23,0,1,1,43.74,27H54.12a1.23,1.23,0,0,1,0,2.45Z"/></svg>